<svg xmlns="http://www.w3.org/2000/svg" viewBox="0 0 800 300" width="800" height="300">
  <defs>
    <!-- Candle glow gradient -->
    <radialGradient id="candleGlow" cx="50%" cy="50%" r="50%">
      <stop offset="0%" stop-color="#FFD700" stop-opacity="0.4">
        <animate attributeName="stop-opacity" values="0.4;0.6;0.35;0.55;0.4" dur="3s" repeatCount="indefinite"/>
      </stop>
      <stop offset="40%" stop-color="#FF8C00" stop-opacity="0.15">
        <animate attributeName="stop-opacity" values="0.15;0.25;0.1;0.2;0.15" dur="3s" repeatCount="indefinite"/>
      </stop>
      <stop offset="100%" stop-color="#FF8C00" stop-opacity="0"/>
    </radialGradient>

    <!-- Secondary candle glow -->
    <radialGradient id="candleGlow2" cx="50%" cy="50%" r="50%">
      <stop offset="0%" stop-color="#FFD700" stop-opacity="0.3">
        <animate attributeName="stop-opacity" values="0.3;0.5;0.25;0.45;0.3" dur="2.5s" repeatCount="indefinite"/>
      </stop>
      <stop offset="50%" stop-color="#FF8C00" stop-opacity="0.1">
        <animate attributeName="stop-opacity" values="0.1;0.2;0.08;0.15;0.1" dur="2.5s" repeatCount="indefinite"/>
      </stop>
      <stop offset="100%" stop-color="#FF8C00" stop-opacity="0"/>
    </radialGradient>

    <!-- Background gradient -->
    <linearGradient id="bgGrad" x1="0" y1="0" x2="0" y2="1">
      <stop offset="0%" stop-color="#0D0A1A"/>
      <stop offset="100%" stop-color="#1A1030"/>
    </linearGradient>

    <!-- Bookshelf wood -->
    <linearGradient id="wood" x1="0" y1="0" x2="0" y2="1">
      <stop offset="0%" stop-color="#3E2723"/>
      <stop offset="100%" stop-color="#2C1B18"/>
    </linearGradient>

    <!-- Desk surface -->
    <linearGradient id="desk" x1="0" y1="0" x2="0" y2="1">
      <stop offset="0%" stop-color="#4E342E"/>
      <stop offset="100%" stop-color="#3E2723"/>
    </linearGradient>

    <!-- Window moonlight -->
    <radialGradient id="moonlight" cx="50%" cy="30%" r="60%">
      <stop offset="0%" stop-color="#C5CAE9" stop-opacity="0.15"/>
      <stop offset="100%" stop-color="#C5CAE9" stop-opacity="0"/>
    </radialGradient>

    <!-- Particle glow -->
    <radialGradient id="particleGlow" cx="50%" cy="50%" r="50%">
      <stop offset="0%" stop-color="#FFD700" stop-opacity="0.8"/>
      <stop offset="100%" stop-color="#FFD700" stop-opacity="0"/>
    </radialGradient>

    <!-- Star twinkle filter -->
    <filter id="blur1">
      <feGaussianBlur stdDeviation="1"/>
    </filter>
    <filter id="blur2">
      <feGaussianBlur stdDeviation="2"/>
    </filter>
  </defs>

  <!-- Background -->
  <rect width="800" height="300" fill="url(#bgGrad)"/>

  <!-- Arched window (back wall, left side) -->
  <path d="M80,40 Q80,10 110,10 Q140,10 140,40 L140,120 L80,120 Z" fill="#1A237E" opacity="0.4"/>
  <path d="M85,42 Q85,15 110,15 Q135,15 135,42 L135,118 L85,118 Z" fill="#283593" opacity="0.3"/>
  <!-- Moonbeam -->
  <ellipse cx="140" cy="100" rx="120" ry="80" fill="url(#moonlight)"/>
  <!-- Window panes -->
  <line x1="110" y1="15" x2="110" y2="118" stroke="#2C1B18" stroke-width="2"/>
  <line x1="85" y1="65" x2="135" y2="65" stroke="#2C1B18" stroke-width="2"/>
  <!-- Stars through window -->
  <circle cx="95" cy="30" r="1" fill="#E8EAF6" opacity="0.7">
    <animate attributeName="opacity" values="0.7;0.2;0.7" dur="4s" repeatCount="indefinite"/>
  </circle>
  <circle cx="120" cy="25" r="0.8" fill="#E8EAF6" opacity="0.5">
    <animate attributeName="opacity" values="0.5;0.1;0.5" dur="3s" repeatCount="indefinite"/>
  </circle>
  <circle cx="128" cy="45" r="0.6" fill="#E8EAF6" opacity="0.6">
    <animate attributeName="opacity" values="0.6;0.15;0.6" dur="5s" repeatCount="indefinite"/>
  </circle>

  <!-- LEFT BOOKSHELF -->
  <!-- Shelf frame -->
  <rect x="10" y="30" width="55" height="240" fill="url(#wood)" rx="2"/>
  <!-- Shelves -->
  <rect x="10" y="30" width="55" height="4" fill="#5D4037"/>
  <rect x="10" y="85" width="55" height="4" fill="#5D4037"/>
  <rect x="10" y="140" width="55" height="4" fill="#5D4037"/>
  <rect x="10" y="195" width="55" height="4" fill="#5D4037"/>
  <!-- Books row 1 -->
  <rect x="14" y="34" width="8" height="50" fill="#C62828" rx="1"/>
  <rect x="23" y="38" width="6" height="46" fill="#1565C0" rx="1"/>
  <rect x="30" y="34" width="9" height="50" fill="#2E7D32" rx="1"/>
  <rect x="40" y="36" width="7" height="48" fill="#6A1B9A" rx="1"/>
  <rect x="48" y="34" width="10" height="50" fill="#E65100" rx="1"/>
  <!-- Books row 2 -->
  <rect x="14" y="90" width="10" height="49" fill="#AD1457" rx="1"/>
  <rect x="25" y="93" width="7" height="46" fill="#00695C" rx="1"/>
  <rect x="33" y="89" width="8" height="50" fill="#4527A0" rx="1"/>
  <rect x="42" y="91" width="9" height="48" fill="#BF360C" rx="1"/>
  <rect x="52" y="90" width="7" height="49" fill="#1B5E20" rx="1"/>
  <!-- Books row 3 -->
  <rect x="14" y="144" width="7" height="50" fill="#0D47A1" rx="1"/>
  <rect x="22" y="147" width="9" height="47" fill="#880E4F" rx="1"/>
  <rect x="32" y="144" width="8" height="50" fill="#33691E" rx="1"/>
  <rect x="41" y="146" width="10" height="48" fill="#311B92" rx="1"/>
  <rect x="52" y="144" width="7" height="50" fill="#B71C1C" rx="1"/>
  <!-- Books row 4 (some leaning) -->
  <rect x="14" y="199" width="9" height="48" fill="#004D40" rx="1" transform="rotate(-3,18,223)"/>
  <rect x="24" y="199" width="7" height="50" fill="#E65100" rx="1"/>
  <rect x="32" y="202" width="8" height="47" fill="#1A237E" rx="1"/>
  <rect x="41" y="199" width="10" height="50" fill="#4A148C" rx="1"/>

  <!-- RIGHT BOOKSHELF -->
  <rect x="680" y="30" width="110" height="240" fill="url(#wood)" rx="2"/>
  <!-- Shelves -->
  <rect x="680" y="30" width="110" height="4" fill="#5D4037"/>
  <rect x="680" y="85" width="110" height="4" fill="#5D4037"/>
  <rect x="680" y="140" width="110" height="4" fill="#5D4037"/>
  <rect x="680" y="195" width="110" height="4" fill="#5D4037"/>
  <!-- Books row 1 -->
  <rect x="684" y="34" width="9" height="50" fill="#1565C0" rx="1"/>
  <rect x="694" y="37" width="7" height="47" fill="#C62828" rx="1"/>
  <rect x="702" y="34" width="10" height="50" fill="#6A1B9A" rx="1"/>
  <rect x="713" y="36" width="8" height="48" fill="#2E7D32" rx="1"/>
  <rect x="722" y="34" width="9" height="50" fill="#E65100" rx="1"/>
  <rect x="732" y="38" width="7" height="46" fill="#00695C" rx="1"/>
  <rect x="740" y="34" width="10" height="50" fill="#AD1457" rx="1"/>
  <rect x="751" y="35" width="8" height="49" fill="#0D47A1" rx="1"/>
  <rect x="760" y="34" width="9" height="50" fill="#BF360C" rx="1"/>
  <rect x="770" y="37" width="10" height="47" fill="#4527A0" rx="1"/>
  <!-- Books row 2 -->
  <rect x="684" y="89" width="10" height="50" fill="#33691E" rx="1"/>
  <rect x="695" y="92" width="8" height="47" fill="#880E4F" rx="1"/>
  <rect x="704" y="89" width="7" height="50" fill="#311B92" rx="1"/>
  <rect x="712" y="91" width="11" height="48" fill="#B71C1C" rx="1"/>
  <rect x="724" y="89" width="8" height="50" fill="#004D40" rx="1"/>
  <rect x="733" y="92" width="9" height="47" fill="#1565C0" rx="1"/>
  <rect x="743" y="89" width="7" height="50" fill="#E65100" rx="1"/>
  <rect x="751" y="90" width="10" height="49" fill="#6A1B9A" rx="1"/>
  <rect x="762" y="89" width="9" height="50" fill="#2E7D32" rx="1"/>
  <!-- Books row 3 -->
  <rect x="684" y="144" width="8" height="50" fill="#4A148C" rx="1"/>
  <rect x="693" y="147" width="10" height="47" fill="#BF360C" rx="1"/>
  <rect x="704" y="144" width="7" height="50" fill="#1B5E20" rx="1"/>
  <rect x="712" y="146" width="9" height="48" fill="#0D47A1" rx="1"/>
  <rect x="722" y="144" width="8" height="50" fill="#C62828" rx="1"/>
  <rect x="731" y="147" width="10" height="47" fill="#00695C" rx="1"/>
  <rect x="742" y="144" width="7" height="50" fill="#AD1457" rx="1"/>
  <rect x="750" y="145" width="9" height="49" fill="#33691E" rx="1"/>
  <rect x="760" y="144" width="10" height="50" fill="#311B92" rx="1"/>
  <!-- Books row 4 -->
  <rect x="684" y="199" width="9" height="49" fill="#E65100" rx="1"/>
  <rect x="694" y="202" width="7" height="46" fill="#1A237E" rx="1"/>
  <rect x="702" y="199" width="10" height="49" fill="#880E4F" rx="1"/>
  <rect x="713" y="201" width="8" height="47" fill="#004D40" rx="1"/>
  <rect x="722" y="199" width="9" height="49" fill="#4527A0" rx="1"/>
  <rect x="732" y="199" width="7" height="49" fill="#B71C1C" rx="1" transform="rotate(4,735,223)"/>
  <rect x="740" y="202" width="10" height="46" fill="#1565C0" rx="1" transform="rotate(-2,745,225)"/>

  <!-- DESK -->
  <path d="M150,210 L650,210 L670,270 L130,270 Z" fill="url(#desk)"/>
  <!-- Desk front -->
  <path d="M130,270 L670,270 L670,285 L130,285 Z" fill="#3E2723"/>
  <!-- Desk legs -->
  <rect x="155" y="285" width="8" height="15" fill="#2C1B18"/>
  <rect x="637" y="285" width="8" height="15" fill="#2C1B18"/>

  <!-- BOOK STACKS ON DESK -->
  <!-- Left stack (tall, messy) -->
  <rect x="170" y="170" width="45" height="8" fill="#C62828" rx="1" transform="rotate(-2,192,174)"/>
  <rect x="168" y="162" width="48" height="8" fill="#1565C0" rx="1" transform="rotate(1,192,166)"/>
  <rect x="171" y="154" width="43" height="8" fill="#2E7D32" rx="1" transform="rotate(-1,192,158)"/>
  <rect x="169" y="146" width="46" height="8" fill="#6A1B9A" rx="1" transform="rotate(2,192,150)"/>
  <rect x="170" y="138" width="44" height="8" fill="#E65100" rx="1" transform="rotate(-1,192,142)"/>
  <rect x="172" y="178" width="42" height="8" fill="#004D40" rx="1"/>
  <rect x="169" y="186" width="47" height="8" fill="#880E4F" rx="1" transform="rotate(1,192,190)"/>
  <rect x="170" y="194" width="45" height="8" fill="#1A237E" rx="1"/>
  <rect x="168" y="202" width="48" height="8" fill="#33691E" rx="1" transform="rotate(-1,192,206)"/>

  <!-- Right stack (shorter) -->
  <rect x="560" y="185" width="50" height="8" fill="#AD1457" rx="1" transform="rotate(2,585,189)"/>
  <rect x="558" y="177" width="52" height="8" fill="#0D47A1" rx="1" transform="rotate(-1,584,181)"/>
  <rect x="561" y="169" width="48" height="8" fill="#BF360C" rx="1"/>
  <rect x="559" y="193" width="50" height="8" fill="#4527A0" rx="1" transform="rotate(1,584,197)"/>
  <rect x="560" y="201" width="48" height="8" fill="#00695C" rx="1" transform="rotate(-2,584,205)"/>

  <!-- Small stack near figure -->
  <rect x="340" y="195" width="35" height="7" fill="#311B92" rx="1" transform="rotate(3,357,198)"/>
  <rect x="338" y="188" width="38" height="7" fill="#B71C1C" rx="1" transform="rotate(-1,357,191)"/>
  <rect x="341" y="181" width="34" height="7" fill="#1B5E20" rx="1"/>

  <!-- OPEN BOOK on desk (the one being read) -->
  <!-- Left page -->
  <path d="M380,205 Q400,195 420,200 L420,170 Q400,165 380,175 Z" fill="#FFF8E1" opacity="0.9"/>
  <!-- Right page -->
  <path d="M420,200 Q440,195 460,205 L460,175 Q440,165 420,170 Z" fill="#FFFDE7" opacity="0.9"/>
  <!-- Spine -->
  <line x1="420" y1="170" x2="420" y2="200" stroke="#5D4037" stroke-width="1.5"/>
  <!-- Text lines (left page) -->
  <line x1="387" y1="180" x2="415" y2="177" stroke="#8D6E63" stroke-width="0.5" opacity="0.5"/>
  <line x1="387" y1="184" x2="415" y2="181" stroke="#8D6E63" stroke-width="0.5" opacity="0.5"/>
  <line x1="387" y1="188" x2="415" y2="185" stroke="#8D6E63" stroke-width="0.5" opacity="0.5"/>
  <line x1="387" y1="192" x2="415" y2="189" stroke="#8D6E63" stroke-width="0.5" opacity="0.5"/>
  <line x1="387" y1="196" x2="410" y2="194" stroke="#8D6E63" stroke-width="0.5" opacity="0.5"/>
  <!-- Text lines (right page) -->
  <line x1="425" y1="177" x2="453" y2="180" stroke="#8D6E63" stroke-width="0.5" opacity="0.5"/>
  <line x1="425" y1="181" x2="453" y2="184" stroke="#8D6E63" stroke-width="0.5" opacity="0.5"/>
  <line x1="425" y1="185" x2="453" y2="188" stroke="#8D6E63" stroke-width="0.5" opacity="0.5"/>
  <line x1="425" y1="189" x2="453" y2="192" stroke="#8D6E63" stroke-width="0.5" opacity="0.5"/>
  <line x1="425" y1="193" x2="448" y2="195" stroke="#8D6E63" stroke-width="0.5" opacity="0.5"/>

  <!-- FIGURE (robed scholar hunched over book) -->
  <!-- Robe body -->
  <path d="M390,130 Q380,160 375,210 L465,210 Q460,160 450,130 Q420,120 390,130 Z" fill="#1A0033" opacity="0.9"/>
  <!-- Robe folds highlight -->
  <path d="M400,140 Q395,170 393,210" stroke="#2D1B4E" stroke-width="1" fill="none" opacity="0.5"/>
  <path d="M440,140 Q445,170 447,210" stroke="#2D1B4E" stroke-width="1" fill="none" opacity="0.5"/>
  <!-- Hood -->
  <path d="M395,130 Q390,110 400,100 Q420,90 440,100 Q450,110 445,130 Q430,125 420,125 Q410,125 395,130 Z" fill="#1A0033"/>
  <!-- Hood shadow/depth -->
  <path d="M400,125 Q410,115 420,113 Q430,115 440,125" stroke="#0D001A" stroke-width="1" fill="#0D001A" opacity="0.5"/>
  <!-- Face shadow (mostly hidden in hood) -->
  <ellipse cx="420" cy="118" rx="12" ry="8" fill="#1A0033" opacity="0.8"/>
  <!-- Hint of face -->
  <ellipse cx="420" cy="120" rx="8" ry="5" fill="#D7CCC8" opacity="0.3"/>
  <!-- Arms reaching to book -->
  <!-- Left arm -->
  <path d="M390,145 Q380,170 395,195" stroke="#1A0033" stroke-width="12" fill="none" stroke-linecap="round"/>
  <!-- Right arm -->
  <path d="M450,145 Q460,170 445,195" stroke="#1A0033" stroke-width="12" fill="none" stroke-linecap="round"/>
  <!-- Hands on book -->
  <ellipse cx="400" cy="197" rx="6" ry="4" fill="#D7CCC8" opacity="0.5"/>
  <ellipse cx="440" cy="197" rx="6" ry="4" fill="#D7CCC8" opacity="0.5"/>

  <!-- CANDLE (on desk, right of figure) -->
  <rect x="498" y="178" width="6" height="25" fill="#FFF8E1" rx="1"/>
  <!-- Wick -->
  <line x1="501" y1="178" x2="501" y2="174" stroke="#3E2723" stroke-width="1"/>
  <!-- Flame -->
  <ellipse cx="501" cy="170" rx="4" ry="8" fill="#FF8F00" opacity="0.9">
    <animate attributeName="ry" values="8;9;7;8.5;8" dur="1.5s" repeatCount="indefinite"/>
    <animate attributeName="rx" values="4;3.5;4.5;3.8;4" dur="1.5s" repeatCount="indefinite"/>
  </ellipse>
  <ellipse cx="501" cy="168" rx="2" ry="5" fill="#FFD600" opacity="0.8">
    <animate attributeName="ry" values="5;6;4.5;5.5;5" dur="1.5s" repeatCount="indefinite"/>
  </ellipse>
  <ellipse cx="501" cy="167" rx="1" ry="3" fill="#FFFFFF" opacity="0.6">
    <animate attributeName="ry" values="3;3.5;2.5;3.2;3" dur="1.5s" repeatCount="indefinite"/>
  </ellipse>
  <!-- Candle glow -->
  <ellipse cx="501" cy="180" rx="80" ry="60" fill="url(#candleGlow)"/>

  <!-- SECOND CANDLE (far left on desk) -->
  <rect x="238" y="185" width="5" height="20" fill="#FFF8E1" rx="1"/>
  <line x1="240.5" y1="185" x2="240.5" y2="181" stroke="#3E2723" stroke-width="1"/>
  <ellipse cx="240.5" cy="177" rx="3.5" ry="7" fill="#FF8F00" opacity="0.9">
    <animate attributeName="ry" values="7;8;6.5;7.5;7" dur="2s" repeatCount="indefinite"/>
    <animate attributeName="rx" values="3.5;3;4;3.3;3.5" dur="2s" repeatCount="indefinite"/>
  </ellipse>
  <ellipse cx="240.5" cy="175.5" rx="1.8" ry="4" fill="#FFD600" opacity="0.8">
    <animate attributeName="ry" values="4;5;3.5;4.5;4" dur="2s" repeatCount="indefinite"/>
  </ellipse>
  <ellipse cx="240.5" cy="185" rx="60" ry="50" fill="url(#candleGlow2)"/>

  <!-- SCROLL (on desk, partially unrolled) -->
  <path d="M530,205 Q540,200 545,205 L545,185 Q540,180 530,185 Z" fill="#FFF8E1" opacity="0.7"/>
  <ellipse cx="537" cy="183" rx="8" ry="3" fill="#FFF8E1" opacity="0.7"/>
  <line x1="533" y1="190" x2="541" y2="190" stroke="#8D6E63" stroke-width="0.3" opacity="0.4"/>
  <line x1="533" y1="193" x2="541" y2="193" stroke="#8D6E63" stroke-width="0.3" opacity="0.4"/>
  <line x1="533" y1="196" x2="541" y2="196" stroke="#8D6E63" stroke-width="0.3" opacity="0.4"/>

  <!-- FLOATING MAGIC PARTICLES -->
  <circle cx="300" cy="100" r="2" fill="#FFD700" filter="url(#blur1)" opacity="0">
    <animate attributeName="cy" values="150;80;150" dur="8s" repeatCount="indefinite"/>
    <animate attributeName="cx" values="300;310;300" dur="8s" repeatCount="indefinite"/>
    <animate attributeName="opacity" values="0;0.7;0" dur="8s" repeatCount="indefinite"/>
  </circle>
  <circle cx="480" cy="120" r="1.5" fill="#CE93D8" filter="url(#blur1)" opacity="0">
    <animate attributeName="cy" values="160;90;160" dur="6s" repeatCount="indefinite" begin="1s"/>
    <animate attributeName="cx" values="480;470;480" dur="6s" repeatCount="indefinite" begin="1s"/>
    <animate attributeName="opacity" values="0;0.6;0" dur="6s" repeatCount="indefinite" begin="1s"/>
  </circle>
  <circle cx="350" cy="80" r="1.8" fill="#FFD700" filter="url(#blur1)" opacity="0">
    <animate attributeName="cy" values="140;60;140" dur="7s" repeatCount="indefinite" begin="2s"/>
    <animate attributeName="cx" values="350;340;350" dur="7s" repeatCount="indefinite" begin="2s"/>
    <animate attributeName="opacity" values="0;0.5;0" dur="7s" repeatCount="indefinite" begin="2s"/>
  </circle>
  <circle cx="550" cy="90" r="1.2" fill="#B39DDB" filter="url(#blur1)" opacity="0">
    <animate attributeName="cy" values="130;70;130" dur="9s" repeatCount="indefinite" begin="0.5s"/>
    <animate attributeName="cx" values="550;560;550" dur="9s" repeatCount="indefinite" begin="0.5s"/>
    <animate attributeName="opacity" values="0;0.6;0" dur="9s" repeatCount="indefinite" begin="0.5s"/>
  </circle>
  <circle cx="260" cy="110" r="1" fill="#FFD700" filter="url(#blur1)" opacity="0">
    <animate attributeName="cy" values="160;100;160" dur="5s" repeatCount="indefinite" begin="3s"/>
    <animate attributeName="opacity" values="0;0.8;0" dur="5s" repeatCount="indefinite" begin="3s"/>
  </circle>
  <circle cx="450" cy="70" r="1.5" fill="#CE93D8" filter="url(#blur1)" opacity="0">
    <animate attributeName="cy" values="120;50;120" dur="10s" repeatCount="indefinite" begin="1.5s"/>
    <animate attributeName="cx" values="450;445;450" dur="10s" repeatCount="indefinite" begin="1.5s"/>
    <animate attributeName="opacity" values="0;0.4;0" dur="10s" repeatCount="indefinite" begin="1.5s"/>
  </circle>
  <circle cx="380" cy="60" r="1.3" fill="#FFD700" filter="url(#blur1)" opacity="0">
    <animate attributeName="cy" values="110;40;110" dur="7.5s" repeatCount="indefinite" begin="4s"/>
    <animate attributeName="cx" values="380;390;380" dur="7.5s" repeatCount="indefinite" begin="4s"/>
    <animate attributeName="opacity" values="0;0.55;0" dur="7.5s" repeatCount="indefinite" begin="4s"/>
  </circle>

  <!-- DUST MOTES (tiny, slow) -->
  <circle cx="200" cy="150" r="0.5" fill="#FFECB3" opacity="0">
    <animate attributeName="cy" values="180;140;180" dur="12s" repeatCount="indefinite"/>
    <animate attributeName="cx" values="200;215;200" dur="12s" repeatCount="indefinite"/>
    <animate attributeName="opacity" values="0;0.4;0" dur="12s" repeatCount="indefinite"/>
  </circle>
  <circle cx="600" cy="130" r="0.5" fill="#FFECB3" opacity="0">
    <animate attributeName="cy" values="160;120;160" dur="15s" repeatCount="indefinite" begin="2s"/>
    <animate attributeName="cx" values="600;590;600" dur="15s" repeatCount="indefinite" begin="2s"/>
    <animate attributeName="opacity" values="0;0.3;0" dur="15s" repeatCount="indefinite" begin="2s"/>
  </circle>
  <circle cx="320" cy="90" r="0.4" fill="#FFECB3" opacity="0">
    <animate attributeName="cy" values="120;80;120" dur="11s" repeatCount="indefinite" begin="5s"/>
    <animate attributeName="opacity" values="0;0.35;0" dur="11s" repeatCount="indefinite" begin="5s"/>
  </circle>

  <!-- TITLE TEXT -->
  <text x="400" y="50" text-anchor="middle" font-family="Georgia, 'Times New Roman', serif" font-size="28" fill="#FFD700" opacity="0.9" letter-spacing="3">
    curiosity-skills
  </text>
  <text x="400" y="72" text-anchor="middle" font-family="Georgia, 'Times New Roman', serif" font-size="12" fill="#B39DDB" opacity="0.7" letter-spacing="2">
    research deeply, learn endlessly
  </text>

  <!-- Floor shadow -->
  <rect x="0" y="290" width="800" height="10" fill="#0D0A1A" opacity="0.5"/>
</svg>
